<svg width="52" height="52" viewBox="0 0 52 52" fill="none" xmlns="http://www.w3.org/2000/svg">
<path d="M26.0968 25.8993C26.1164 25.9738 25.1701 25.6641 25.0869 25.6364C24.418 25.4145 23.7491 25.1924 23.08 24.9709C21.0763 24.3081 19.0735 23.6428 17.0704 22.9785C16.3902 22.7528 15.7094 22.529 15.0297 22.3019C14.8069 22.2275 14.5841 22.1529 14.3608 22.0802C14.2442 22.0422 13.8958 21.9238 14.0117 21.9641C14.269 22.0531 14.5152 21.9924 14.7686 21.9053C14.87 21.8704 14.5893 21.982 14.4942 21.9993C14.335 22.0284 14.1691 22.0168 14.0154 21.966C13.5384 21.8083 13.2547 21.2936 13.3757 20.8049C13.5055 20.2806 14.0574 19.9564 14.5773 20.0992C14.8283 20.1681 15.0452 20.339 15.1713 20.5673C15.2026 20.6239 15.2762 20.8038 15.2478 20.7456C15.1301 20.5044 14.9989 20.287 14.7541 20.1677C14.6364 20.1103 14.9883 20.285 15.105 20.3443C15.3199 20.4533 15.5351 20.5617 15.7507 20.6694C16.4183 21.0031 17.0832 21.342 17.75 21.6773C19.8808 22.7487 22.01 23.8234 24.1393 24.8977C24.2812 24.9694 26.0839 25.8501 26.0968 25.8993ZM15.2191 21.413C15.0134 21.9107 14.4442 22.147 13.9476 21.9409C13.4511 21.7347 13.2153 21.1642 13.421 20.6665C13.6267 20.1688 14.1959 19.9325 14.6924 20.1386C15.189 20.3448 15.4247 20.9153 15.2191 21.413Z" fill="#E60000"/>
<path d="M26.069 25.9261C26.0026 25.9649 26.8903 26.4166 26.9686 26.456C27.5982 26.7732 28.2279 27.0901 28.8572 27.4079C30.7416 28.3592 32.6272 29.3083 34.5123 30.2582C35.1524 30.5809 35.7917 30.905 36.4325 31.2262C36.6426 31.3314 36.8528 31.4365 37.0619 31.5434C37.1712 31.5993 37.5009 31.7625 37.3907 31.7088C37.1459 31.5894 37.0147 31.372 36.897 31.1308C36.8499 31.0342 36.9696 31.3121 37.0247 31.3917C37.1168 31.5251 37.2422 31.6345 37.3867 31.7075C37.8353 31.9341 38.3989 31.7711 38.6581 31.34C38.9364 30.8771 38.7748 30.2567 38.3065 29.9893C38.0802 29.86 37.8064 29.8272 37.5562 29.8992C37.4941 29.9171 37.3152 29.9921 37.3763 29.9711C37.6296 29.8839 37.8758 29.8232 38.1331 29.9124C38.2568 29.9552 37.8847 29.8293 37.7603 29.7885C37.5315 29.7134 37.3028 29.6375 37.0744 29.5609C36.3669 29.3236 35.6576 29.0919 34.9496 28.8565C32.687 28.1039 30.4234 27.3547 28.1598 26.6053C28.009 26.5554 26.1129 25.9005 26.069 25.9261ZM36.9257 30.4634C36.7201 30.9611 36.9558 31.5316 37.4523 31.7378C37.9489 31.9439 38.5181 31.7076 38.7238 31.2099C38.9295 30.7122 38.6937 30.1417 38.1971 29.9355C37.7006 29.7293 37.1314 29.9657 36.9257 30.4634Z" fill="#E60000"/>
<path d="M26.0689 25.9531C25.9946 25.9726 26.3036 25.0243 26.3312 24.9409C26.5526 24.2703 26.7743 23.5999 26.9951 22.9293C27.6565 20.921 28.3202 18.9134 28.9831 16.9057C29.2082 16.2239 29.4315 15.5415 29.6581 14.8602C29.7323 14.6369 29.8068 14.4137 29.8793 14.1898C29.9171 14.0729 30.0352 13.7238 29.9951 13.8399C29.9062 14.0978 29.9668 14.3446 30.0537 14.5985C30.0886 14.7002 29.9772 14.4189 29.96 14.3236C29.931 14.1639 29.9425 13.9977 29.9932 13.8436C30.1505 13.3655 30.664 13.0812 31.1515 13.2024C31.6747 13.3325 31.9982 13.8857 31.8557 14.4068C31.7869 14.6584 31.6164 14.8758 31.3887 15.0022C31.3321 15.0335 31.1527 15.1073 31.2107 15.0789C31.4514 14.9609 31.6683 14.8294 31.7874 14.584C31.8446 14.466 31.6703 14.8187 31.6111 14.9358C31.5024 15.1511 31.3942 15.3669 31.2868 15.5829C30.9538 16.2521 30.6158 16.9186 30.2812 17.5869C29.2123 19.7226 28.1401 21.8568 27.0682 23.991C26.9968 24.1332 26.1181 25.9401 26.0689 25.9531ZM30.5449 15.0501C30.0483 14.8439 29.8126 14.2734 30.0182 13.7757C30.224 13.278 30.7931 13.0417 31.2896 13.2478C31.7862 13.454 32.022 14.0245 31.8163 14.5222C31.6106 15.0199 31.0414 15.2562 30.5449 15.0501Z" fill="#E60000"/>
<path d="M26.0422 25.9253C26.0035 25.8588 25.553 26.7484 25.5135 26.8269C25.1971 27.4579 24.8809 28.0892 24.5639 28.7199C23.6148 30.6087 22.6679 32.4987 21.7202 34.3881C21.3983 35.0298 21.0749 35.6706 20.7545 36.3129C20.6494 36.5234 20.5446 36.734 20.4379 36.9437C20.3822 37.0532 20.2194 37.3837 20.273 37.2733C20.3921 37.0279 20.609 36.8964 20.8497 36.7784C20.946 36.7312 20.6688 36.8512 20.5893 36.9063C20.4562 36.9987 20.3471 37.1244 20.2742 37.2693C20.0482 37.7189 20.2108 38.2838 20.641 38.5437C21.1027 38.8225 21.7216 38.6606 21.9885 38.1911C22.1174 37.9644 22.1502 37.6899 22.0783 37.4391C22.0605 37.3769 21.9856 37.1976 22.0066 37.2587C22.0936 37.5127 22.1542 37.7594 22.0652 38.0173C22.0225 38.1414 22.1481 37.7684 22.1888 37.6437C22.2638 37.4143 22.3395 37.1851 22.4159 36.9562C22.6526 36.2471 22.8837 35.5362 23.1187 34.8265C23.8695 32.5587 24.6169 30.2897 25.3646 28.0208C25.4144 27.8697 26.0678 25.9693 26.0422 25.9253ZM21.5155 36.8072C21.019 36.6011 20.4497 36.8374 20.2441 37.3351C20.0384 37.8327 20.2742 38.4033 20.7707 38.6094C21.2672 38.8156 21.8365 38.5793 22.0421 38.0816C22.2478 37.5839 22.012 37.0133 21.5155 36.8072Z" fill="#E60000"/>
</svg>
