<svg width="228" height="52" viewBox="0 0 228 52" fill="none" xmlns="http://www.w3.org/2000/svg">
<path d="M37.3428 26.9573C37.3428 16.74 29.06 8.45728 18.8428 8.45728C8.62551 8.45728 0.342773 16.74 0.342773 26.9573C0.342773 37.1745 8.62551 45.4573 18.8428 45.4573C29.06 45.4573 37.3428 37.1745 37.3428 26.9573Z" fill="#E60000"/>
<path d="M73.5568 24.875H68.5795C68.4886 24.2311 68.303 23.6591 68.0227 23.1591C67.7424 22.6515 67.3826 22.2197 66.9432 21.8636C66.5038 21.5076 65.9962 21.2348 65.4205 21.0455C64.8523 20.8561 64.2348 20.7614 63.5682 20.7614C62.3636 20.7614 61.3144 21.0606 60.4205 21.6591C59.5265 22.25 58.8333 23.1136 58.3409 24.25C57.8485 25.3788 57.6023 26.75 57.6023 28.3636C57.6023 30.0227 57.8485 31.4167 58.3409 32.5455C58.8409 33.6742 59.5379 34.5265 60.4318 35.1023C61.3258 35.678 62.3598 35.9659 63.5341 35.9659C64.1932 35.9659 64.803 35.8788 65.3636 35.7045C65.9318 35.5303 66.4356 35.2765 66.875 34.9432C67.3144 34.6023 67.678 34.1894 67.9659 33.7045C68.2614 33.2197 68.4659 32.6667 68.5795 32.0455L73.5568 32.0682C73.428 33.1364 73.1061 34.1667 72.5909 35.1591C72.0833 36.1439 71.3977 37.0265 70.5341 37.8068C69.678 38.5795 68.6553 39.1932 67.4659 39.6477C66.2841 40.0947 64.947 40.3182 63.4545 40.3182C61.3788 40.3182 59.5227 39.8485 57.8864 38.9091C56.2576 37.9697 54.9697 36.6098 54.0227 34.8295C53.0833 33.0492 52.6136 30.8939 52.6136 28.3636C52.6136 25.8258 53.0909 23.6667 54.0455 21.8864C55 20.1061 56.2955 18.75 57.9318 17.8182C59.5682 16.8788 61.4091 16.4091 63.4545 16.4091C64.803 16.4091 66.053 16.5985 67.2045 16.9773C68.3636 17.3561 69.3902 17.9091 70.2841 18.6364C71.178 19.3561 71.9053 20.2386 72.4659 21.2841C73.0341 22.3295 73.3977 23.5265 73.5568 24.875ZM76.9943 40V22.5455H81.6875V25.5909H81.8693C82.1875 24.5076 82.7216 23.6894 83.4716 23.1364C84.2216 22.5758 85.0852 22.2955 86.0625 22.2955C86.3049 22.2955 86.5663 22.3106 86.8466 22.3409C87.1269 22.3712 87.3731 22.4129 87.5852 22.4659V26.7614C87.358 26.6932 87.0436 26.6326 86.642 26.5795C86.2405 26.5265 85.8731 26.5 85.5398 26.5C84.8277 26.5 84.1913 26.6553 83.6307 26.9659C83.0777 27.2689 82.6383 27.6932 82.3125 28.2386C81.9943 28.7841 81.8352 29.4129 81.8352 30.125V40H76.9943ZM97.1619 40.3409C95.3968 40.3409 93.8703 39.9659 92.5824 39.2159C91.3021 38.4583 90.3134 37.4053 89.6165 36.0568C88.9195 34.7008 88.571 33.1288 88.571 31.3409C88.571 29.5379 88.9195 27.9621 89.6165 26.6136C90.3134 25.2576 91.3021 24.2045 92.5824 23.4545C93.8703 22.697 95.3968 22.3182 97.1619 22.3182C98.9271 22.3182 100.45 22.697 101.73 23.4545C103.018 24.2045 104.01 25.2576 104.707 26.6136C105.404 27.9621 105.753 29.5379 105.753 31.3409C105.753 33.1288 105.404 34.7008 104.707 36.0568C104.01 37.4053 103.018 38.4583 101.73 39.2159C100.45 39.9659 98.9271 40.3409 97.1619 40.3409ZM97.1847 36.5909C97.9877 36.5909 98.6581 36.3636 99.196 35.9091C99.7339 35.447 100.139 34.8182 100.412 34.0227C100.692 33.2273 100.832 32.322 100.832 31.3068C100.832 30.2917 100.692 29.3864 100.412 28.5909C100.139 27.7955 99.7339 27.1667 99.196 26.7045C98.6581 26.2424 97.9877 26.0114 97.1847 26.0114C96.3741 26.0114 95.6922 26.2424 95.1392 26.7045C94.5938 27.1667 94.1809 27.7955 93.9006 28.5909C93.6278 29.3864 93.4915 30.2917 93.4915 31.3068C93.4915 32.322 93.6278 33.2273 93.9006 34.0227C94.1809 34.8182 94.5938 35.447 95.1392 35.9091C95.6922 36.3636 96.3741 36.5909 97.1847 36.5909ZM108.901 46.5455V22.5455H113.673V25.4773H113.889C114.101 25.0076 114.408 24.5303 114.81 24.0455C115.219 23.553 115.749 23.1439 116.401 22.8182C117.06 22.4848 117.878 22.3182 118.855 22.3182C120.128 22.3182 121.302 22.6515 122.378 23.3182C123.454 23.9773 124.313 24.9735 124.957 26.3068C125.601 27.6326 125.923 29.2955 125.923 31.2955C125.923 33.2424 125.609 34.8864 124.98 36.2273C124.359 37.5606 123.51 38.572 122.435 39.2614C121.366 39.9432 120.17 40.2841 118.844 40.2841C117.904 40.2841 117.105 40.1288 116.446 39.8182C115.795 39.5076 115.26 39.1174 114.844 38.6477C114.427 38.1705 114.109 37.6894 113.889 37.2045H113.741V46.5455H108.901ZM113.639 31.2727C113.639 32.3106 113.783 33.2159 114.071 33.9886C114.359 34.7614 114.776 35.3636 115.321 35.7955C115.866 36.2197 116.529 36.4318 117.31 36.4318C118.098 36.4318 118.764 36.2159 119.31 35.7841C119.855 35.3447 120.268 34.7386 120.548 33.9659C120.836 33.1856 120.98 32.2879 120.98 31.2727C120.98 30.2652 120.84 29.3788 120.56 28.6136C120.279 27.8485 119.866 27.25 119.321 26.8182C118.776 26.3864 118.105 26.1705 117.31 26.1705C116.522 26.1705 115.855 26.3788 115.31 26.7955C114.772 27.2121 114.359 27.803 114.071 28.5682C113.783 29.3333 113.639 30.2348 113.639 31.2727Z" fill="black"/>
<path fill-rule="evenodd" clip-rule="evenodd" d="M23.9428 17.4252C20.9739 18.429 20.0186 19.7063 19.873 22.8674C19.7891 24.6917 19.7606 24.8145 19.4788 24.5701C19.2479 24.3701 19.1245 24.3553 18.964 24.5091C18.8035 24.6628 18.6757 24.6472 18.431 24.4438C17.7649 23.8907 16.44 23.2838 15.4437 23.076C14.1642 22.8088 12.5484 23.0657 11.2395 23.7448C10.2909 24.2365 8.65759 25.8288 8.3595 26.5519C6.72434 30.518 6.60924 31.1995 7.77239 30.0262C8.29197 29.5023 8.33626 29.4914 9.50232 29.5992C11.1115 29.7481 12.1955 29.3465 14.2987 27.8215C16.4275 26.2779 17.1188 25.9693 18.4656 25.9612L19.5486 25.9546L19.8802 27.2591C20.3671 29.1756 20.2388 32.3054 19.5749 34.7043C19.0141 36.7302 19.0802 37 20.1373 37C20.9217 37 21.1202 36.5898 21.5584 34.0614C21.9673 31.7032 21.7185 29.1068 20.8844 27.0234C20.4171 25.8566 20.3699 25.5988 20.5607 25.257C20.8509 24.7375 22.0807 24.1259 24.0174 23.5376C25.7637 23.0072 27.511 21.8763 28.2873 20.7738C28.5422 20.4117 28.8601 19.6148 28.9937 19.0031C29.2727 17.7249 29.3764 17.5183 29.7384 17.5183C29.8824 17.5183 30 17.4497 30 17.3661C30 17.1203 28.9926 16.9963 27.0272 17.0001C25.5531 17.003 24.9424 17.0872 23.9428 17.4252Z" fill="white"/>
</svg>
