<svg width="312" height="478" viewBox="0 0 312 478" fill="none" xmlns="http://www.w3.org/2000/svg">
<path fill-rule="evenodd" clip-rule="evenodd" d="M223.68 118.443C186.762 131.292 174.883 147.641 173.073 188.103C172.03 211.454 171.675 213.026 168.172 209.898C165.3 207.337 163.765 207.148 161.77 209.116C159.774 211.084 158.185 210.884 155.142 208.281C146.859 201.201 130.384 193.433 117.995 190.772C102.085 187.352 81.9935 190.641 65.7173 199.333C53.9221 205.627 33.6118 226.009 29.9051 235.264C9.57224 286.03 8.14102 294.753 22.6045 279.736C29.0653 273.03 29.6161 272.889 44.1158 274.27C64.1258 276.176 77.605 271.035 103.758 251.515C130.228 231.757 138.825 227.808 155.573 227.703L169.039 227.618L173.163 244.317C179.217 268.848 177.621 308.909 169.366 339.615C162.393 365.547 163.214 369 176.359 369C186.114 369 188.581 363.75 194.031 331.386C199.115 301.201 196.022 267.967 185.649 241.3C179.838 226.365 179.251 223.065 181.624 218.69C185.234 212.04 200.525 204.211 224.608 196.681C246.322 189.893 268.05 175.416 277.703 161.305C280.873 156.669 284.825 146.47 286.487 138.639C289.957 122.279 291.246 119.634 295.747 119.634C297.537 119.634 299 118.757 299 117.686C299 114.54 286.473 112.952 262.034 113.001C243.704 113.039 236.11 114.117 223.68 118.443Z" fill="white"/>
</svg>
